<svg width="1400" height="900" viewBox="0 0 1400 900" fill="none" xmlns="http://www.w3.org/2000/svg">
<path d="M300.5 749.682C300.5 529.115 479.362 350.309 700 350.309C920.638 350.309 1099.5 529.115 1099.5 749.682C1099.5 970.249 920.638 1149.05 700 1149.05C479.362 1149.05 300.5 970.249 300.5 749.682Z" stroke="#23262C"/>
<path d="M160.5 609.726C160.5 311.864 402.042 70.3981 700 70.3981C997.958 70.3981 1239.5 311.864 1239.5 609.726C1239.5 907.589 997.958 1149.05 700 1149.05C402.042 1149.05 160.5 907.589 160.5 609.726Z" stroke="#23262C"/>
<path d="M80.5 529.752C80.5 187.72 357.859 -89.5511 700 -89.5511C1042.14 -89.5511 1319.5 187.72 1319.5 529.752C1319.5 871.783 1042.14 1149.05 700 1149.05C357.859 1149.05 80.5 871.783 80.5 529.752Z" stroke="#23262C"/>
<path d="M0.5 449.777C0.5 63.577 313.677 -249.5 700 -249.5C1086.32 -249.5 1399.5 63.577 1399.5 449.777C1399.5 835.977 1086.32 1149.05 700 1149.05C313.677 1149.05 0.5 835.977 0.5 449.777Z" stroke="#23262C"/>
<path d="M220.5 670.153C220.5 405.417 435.179 190.805 700 190.805C964.821 190.805 1179.5 405.417 1179.5 670.153C1179.5 934.889 964.821 1149.5 700 1149.5C435.179 1149.5 220.5 934.889 220.5 670.153Z" stroke="#23262C"/>
</svg>
